<svg xmlns="http://www.w3.org/2000/svg" viewBox="0 0 2048 2048" width="200" height="200">
<g transform="translate(0,2048) scale(0.1,-0.1)" fill="#000">
<path d="M6205 16222 c-206 -53 -382 -207 -450 -394 l-23 -63 -153 -31 c-248
-50 -525 -127 -714 -199 -49 -19 -133 -50 -185 -70 -52 -20 -156 -68 -230
-106 -520 -264 -928 -563 -1343 -983 -629 -636 -1069 -1372 -1365 -2286 -106
-327 -199 -799 -234 -1185 -3 -25 -9 -31 -45 -41 -64 -19 -174 -80 -220 -122
-103 -95 -182 -223 -207 -334 -45 -199 -25 -347 71 -509 81 -137 189 -231 329
-288 l69 -28 12 -119 c39 -372 145 -834 287 -1249 297 -874 779 -1645 1418
-2270 278 -273 371 -349 768 -633 201 -143 661 -384 935 -488 221 -84 581
-188 749 -217 l68 -12 28 -77 c64 -182 229 -337 425 -401 118 -38 310 -31 430
15 174 68 332 236 390 416 15 47 20 52 45 52 34 0 120 18 296 61 679 165 1318
494 1889 973 341 287 617 588 942 1027 l57 77 69 -101 c148 -216 354 -459 597
-707 363 -370 891 -745 1345 -956 363 -169 756 -299 1085 -359 52 -9 100 -18
105 -20 6 -1 20 -34 33 -72 56 -175 218 -333 408 -400 71 -25 92 -28 214 -28
115 1 145 4 200 23 97 35 197 98 271 171 74 75 110 131 148 233 l26 71 105 22
c336 70 719 201 1075 367 349 163 837 497 1154 789 562 519 971 1056 1285
1689 167 335 310 696 400 1005 76 261 159 666 195 954 11 90 22 165 23 166 2
1 30 12 63 25 82 33 194 110 252 173 70 78 131 190 149 278 22 105 22 269 0
343 -61 206 -218 381 -399 448 -33 12 -61 26 -62 32 -2 6 -11 76 -20 155 -49
442 -154 873 -338 1386 -77 214 -231 541 -374 795 -73 129 -297 470 -393 600
-194 261 -527 620 -760 820 -449 385 -829 624 -1340 842 -258 111 -635 216
-971 272 -32 6 -37 11 -49 49 -11 39 -63 136 -92 174 -64 83 -163 161 -260
206 -167 79 -408 75 -574 -9 -130 -66 -247 -183 -301 -304 -14 -30 -30 -66
-37 -79 -7 -16 -21 -26 -41 -28 -98 -11 -464 -91 -570 -123 -16 -6 -70 -21
-120 -36 -210 -61 -448 -158 -683 -280 -654 -338 -1262 -863 -1722 -1486 -51
-68 -94 -124 -98 -125 -4 -2 -18 14 -32 35 -224 338 -668 806 -1031 1088 -169
131 -492 354 -513 354 -2 0 -39 20 -81 46 -94 55 -331 174 -440 221 -309 132
-748 259 -1035 298 -95 13 -98 14 -111 53 -62 187 -222 340 -423 404 -89 29
-279 34 -371 10z m1135 -973 c202 -48 449 -135 705 -249 184 -82 216 -98 375
-193 274 -163 454 -292 665 -478 307 -270 542 -531 803 -891 l92 -127 -53 -83
c-99 -153 -314 -563 -419 -798 -177 -395 -402 -1014 -483 -1332 -21 -82 -41
-148 -45 -148 -4 0 -21 39 -40 87 -43 114 -248 518 -334 657 -175 287 -319
470 -540 692 -240 240 -421 378 -666 508 -427 225 -967 303 -1455 210 -333
-64 -630 -194 -930 -408 -417 -297 -765 -747 -968 -1251 -99 -243 -138 -381
-186 -645 -74 -410 -78 -692 -15 -1060 65 -381 171 -686 353 -1021 134 -245
265 -420 476 -635 398 -404 827 -633 1360 -724 407 -70 852 -7 1254 179 662
305 1218 932 1616 1821 113 252 238 575 293 755 22 72 60 196 85 276 25 80 66
223 91 317 152 568 362 1160 561 1577 31 66 72 153 91 193 83 174 298 556 420
742 339 519 822 1037 1264 1357 210 152 354 240 564 345 387 194 675 291 1134
381 l72 14 37 -71 c51 -98 182 -228 280 -279 257 -133 560 -91 771 108 58 54
88 93 120 154 37 69 47 80 65 76 12 -2 96 -21 187 -40 329 -72 788 -244 1053
-396 450 -257 727 -470 1093 -842 265 -270 383 -415 591 -727 133 -198 199
-313 303 -519 292 -585 477 -1208 548 -1849 10 -82 15 -73 -82 -127 -120 -66
-203 -160 -267 -301 -30 -67 -59 -205 -59 -285 0 -132 66 -306 159 -416 51
-61 162 -145 229 -172 17 -7 32 -19 32 -27 0 -35 -44 -316 -71 -449 -124 -622
-297 -1111 -576 -1630 -275 -510 -545 -869 -959 -1275 -433 -424 -912 -745
-1429 -960 -219 -91 -606 -210 -771 -236 -39 -6 -41 -5 -54 26 -41 98 -172
224 -291 280 -188 87 -412 83 -608 -12 -82 -40 -228 -179 -261 -250 -12 -27
-25 -48 -29 -48 -23 0 -147 27 -286 61 -720 180 -1381 558 -1962 1123 -274
266 -499 540 -684 834 l-47 73 40 67 c62 101 221 405 321 612 209 436 436
1038 573 1525 25 88 48 167 51 175 6 17 3 22 88 -175 55 -128 190 -386 268
-515 181 -297 353 -517 586 -751 220 -219 456 -392 696 -508 376 -183 661
-246 1058 -235 681 19 1340 376 1829 989 186 235 308 447 425 740 111 276 178
543 215 850 19 160 16 518 -6 690 -20 162 -82 449 -127 592 -153 483 -390 876
-738 1223 -339 338 -718 560 -1121 656 -408 97 -732 92 -1150 -15 -462 -118
-957 -460 -1319 -911 -318 -396 -507 -740 -789 -1440 -83 -206 -118 -306 -176
-510 -20 -69 -52 -177 -72 -240 -19 -63 -53 -178 -74 -255 -107 -393 -235
-782 -365 -1105 -133 -333 -164 -402 -305 -685 -240 -484 -408 -758 -694
-1135 -307 -404 -777 -849 -1146 -1085 -41 -26 -104 -67 -140 -90 -302 -196
-731 -382 -1135 -493 -133 -36 -300 -66 -315 -57 -5 3 -19 24 -31 46 -27 53
-148 180 -210 220 -126 80 -304 120 -445 99 -103 -16 -215 -56 -286 -104 -70
-46 -176 -158 -209 -220 -28 -54 -13 -54 -234 0 -345 83 -745 243 -1054 421
-231 133 -284 168 -456 296 -568 426 -994 900 -1374 1531 -88 147 -288 542
-343 679 -174 435 -299 889 -372 1347 -38 240 -39 250 -25 250 30 0 159 89
217 149 78 80 122 152 158 256 25 72 28 94 28 215 0 121 -2 142 -26 208 -53
146 -144 264 -266 343 -40 26 -82 51 -94 55 -19 6 -20 11 -14 88 27 324 156
885 277 1211 87 232 243 592 304 700 224 399 283 489 500 769 304 392 695 763
1085 1028 342 233 645 382 1050 519 179 60 455 131 545 141 28 3 32 -2 69 -70
77 -142 215 -254 381 -309 112 -37 284 -39 395 -5 181 57 325 172 404 323 l40
76 105 -19 c59 -10 162 -32 231 -49z m-700 -2574 c239 -39 463 -127 722 -286
139 -86 230 -159 364 -295 249 -251 460 -545 657 -914 92 -173 256 -568 336
-812 l42 -127 -31 -103 c-70 -228 -185 -507 -320 -778 -213 -425 -403 -693
-686 -970 -158 -154 -256 -233 -401 -323 -234 -145 -422 -212 -743 -268 -30
-5 -120 -9 -200 -10 -279 -1 -553 64 -825 196 -196 95 -298 167 -509 360 -510
466 -840 1295 -796 1995 20 314 81 612 176 855 52 132 205 433 265 519 309
450 687 748 1127 890 236 76 380 98 597 90 72 -2 173 -11 225 -19z m7780 -6
c361 -61 748 -263 1039 -544 255 -245 489 -617 611 -970 47 -136 112 -387 134
-520 62 -365 33 -757 -83 -1156 -48 -164 -75 -235 -134 -360 -204 -424 -471
-752 -802 -981 -278 -193 -536 -294 -847 -332 -292 -36 -566 -4 -847 100 -152
57 -397 200 -553 324 -105 84 -325 308 -429 437 -300 373 -569 890 -745 1434
l-44 136 44 134 c24 74 81 224 126 334 261 637 508 1034 861 1382 203 200 333
296 552 405 366 183 735 242 1117 177z"/>
</g>
</svg>
